<svg xmlns="http://www.w3.org/2000/svg" viewBox="0 0 338.54 89"><defs><style>.cls-1{fill:#c4d9c1;}.cls-2{fill:#88bfa5;}.cls-3{font-size:20.01px;fill:#fff;font-family:BalsamiqSans-Regular, Balsamiq Sans;}.cls-4{letter-spacing:-0.03em;}</style></defs><g id="레이어_2" data-name="레이어 2"><g id="레이어_1-2" data-name="레이어 1"><path class="cls-1" d="M7.54,0S2,35,0,46c-.58,3.15,6,36,6.5,43h325s1-35,7-43c0,0-9-36-7-45Z"/><path class="cls-2" d="M45,17c-9,2-10,1-17,4S0,60,41,70s235,12,245,8,29-9,32-26,12-29-12-33-35-5-64-4S106,13,97,14,45,17,45,17Z"/><text class="cls-3" transform="translate(124.33 51.01)">E N<tspan class="cls-4" x="33.64" y="0"> </tspan><tspan x="38.44" y="0">T E R</tspan></text></g></g></svg>