<svg xmlns="http://www.w3.org/2000/svg" viewBox="0 0 70.33 124.64"><defs><style>.cls-1{fill:#378e75;}</style></defs><g id="레이어_2" data-name="레이어 2"><g id="레이어_1-2" data-name="레이어 1"><path class="cls-1" d="M38.51,124s-1.82-29.58,1.57-34.92S69,77.19,70.18,67.94s-5-8.73-9.12-4.17S42.68,79,41.9,78.76,51.94,64,53,60.91s3.26-13,2-19.29c-1.34-6.46-4.3-7.17-6-3.13-2.2,5.24-.39,6.52-4.56,21-4.22,14.63-6,23.2-7,18.11s-10.16-16-6.51-23.32S43.73,35.5,45,34.06s3.65-5.86-.39-4.17S35.26,36.8,34.21,39s-2.47-8.34.66-15.37C38.69,15,50.24,9.17,47.64,6.57s-15.12,1-16.81,14.2c0,0-3.39,1.17,1.43-12.25S27.83,1,25.87,3.31s-2.21,15.77.27,22.8,3.12,18.64.91,15.12-4.82-20.46-7.56-21.11-7.82-.65-5.73,7,5.34,4.56,8,15.24c2.19,9-.92,15.64,4.69,23.85s7.81,13.42,6.77,13.42S22.88,68.2,19.88,65.08s-6-7.82-16.16-7.95c-9.65-.13,2,10.55,6.78,13.55S28,80.27,29.78,81.88c2.87,2.61,3.39,4.44,3,8.08s-6-3.91-12.51-6S9.2,80.19,6.33,82,1.9,86.84,6.46,90s13.42,8.34,20.46,6.78,6.38,12.25,6.25,15.9.39,11.33,1,11.86S38.51,124,38.51,124Z"/></g></g></svg>