<svg xmlns="http://www.w3.org/2000/svg" viewBox="0 0 231.19 81.48"><defs><style>.cls-1{fill:#a6fd8d;}.cls-2{fill:#88bfa5;}.cls-3{fill:#7ca590;}</style></defs><g id="레이어_2" data-name="레이어 2"><g id="레이어_1-2" data-name="레이어 1"><path class="cls-1" d="M31.76,0V0c.48,0,.95,0,1.43,0Z"/><path class="cls-1" d="M199.43,81.48v0c-.47,0-1,0-1.43,0Z"/><path class="cls-1" d="M31.76,81.48h1.43c-.48,0-.95,0-1.43,0Z"/><path class="cls-1" d="M199.43,0H198c.48,0,1,0,1.43,0Z"/><path class="cls-2" d="M164.81,40.74C164.81,18.24,179.67,0,198,0H95.44l46.84,81.48H198C179.67,81.48,164.81,63.24,164.81,40.74Z"/><path class="cls-2" d="M199.43,0v81.4c17.67-.92,31.76-18.79,31.76-40.7S217.1,1,199.43,0Z"/><path class="cls-2" d="M198,0c-18.33,0-33.19,18.24-33.19,40.74S179.67,81.48,198,81.48c.48,0,1,0,1.43,0V0C199,0,198.48,0,198,0Z"/><path class="cls-3" d="M33.19,0c18.34,0,33.2,18.24,33.2,40.74S51.53,81.48,33.19,81.48H142.28L95.44,0Z"/><path class="cls-3" d="M0,40.74c0,21.91,14.09,39.78,31.76,40.7V0C14.09,1,0,18.83,0,40.74Z"/><path class="cls-3" d="M66.39,40.74C66.39,18.24,51.53,0,33.19,0c-.48,0-.95,0-1.43,0v81.4c.48,0,.95,0,1.43,0C51.53,81.48,66.39,63.24,66.39,40.74Z"/></g></g></svg>